<svg viewBox="0 0 920 300" xmlns="http://www.w3.org/2000/svg" role="img" aria-label="Avatar calling architecture">
  <rect width="920" height="300" rx="12" fill="#0e0c0a"/>
  <defs>
    <marker id="arr" viewBox="0 0 8 8" refX="7" refY="4" markerWidth="7" markerHeight="7" orient="auto"><path d="M0 0 L8 4 L0 8 Z" fill="#7d8590"/></marker>
  </defs>
  <rect x="185" y="38" width="150" height="234" rx="10" fill="rgba(237,163,92,0.055)"/>
  <rect x="370" y="38" width="300" height="234" rx="10" fill="rgba(74,109,168,0.08)"/>
  <rect x="700" y="38" width="190" height="234" rx="10" fill="rgba(46,160,67,0.06)"/>
  <text x="260" y="58" text-anchor="middle" font-family="ui-monospace,Menlo,monospace" font-size="9.5" letter-spacing="2" fill="#eda35c">MEDIA PLANE</text>
  <text x="520" y="58" text-anchor="middle" font-family="ui-monospace,Menlo,monospace" font-size="9.5" letter-spacing="2" fill="#7a9fd4">AGENT PLANE</text>
  <text x="795" y="58" text-anchor="middle" font-family="ui-monospace,Menlo,monospace" font-size="9.5" letter-spacing="2" fill="#3fb950">DATA &amp; TOOLS</text>
  <g fill="none" stroke="#57534b" stroke-width="1.6">
    <path id="e1" d="M 140 132 C 168 124 178 118 200 110" marker-end="url(#arr)"/>
    <path d="M 200 124 C 178 132 168 140 140 146" marker-end="url(#arr)"/>
    <path id="e2" d="M 320 100 C 352 96 362 97 388 98" marker-end="url(#arr)"/>
    <path d="M 490 98 L 518 98" marker-end="url(#arr)"/>
    <path d="M 560 116 C 558 126 552 132 547 139" marker-end="url(#arr)"/>
    <path d="M 553 180 C 557 188 559 191 560 198" marker-end="url(#arr)"/>
    <path d="M 518 218 L 492 218" marker-end="url(#arr)"/>
    <path id="e3" d="M 388 216 C 342 210 322 170 318 132" marker-end="url(#arr)"/>
    <path id="e4" d="M 600 150 C 662 138 678 112 718 100" marker-end="url(#arr)"/>
    <path id="e5" d="M 795 116 L 795 134" marker-end="url(#arr)"/>
    <path d="M 600 168 C 662 186 678 214 728 224" marker-end="url(#arr)"/>
  </g>
  <text x="352" y="86" text-anchor="middle" font-family="ui-monospace,Menlo,monospace" font-size="9" fill="#8b949e">audio</text>
  <text x="330" y="248" text-anchor="middle" font-family="ui-monospace,Menlo,monospace" font-size="9" fill="#8b949e">video + audio</text>
  <rect x="30" y="118" width="110" height="42" rx="9" fill="#1c1f26" stroke="#8b949e" stroke-width="1.5"/>
  <text x="85" y="144" text-anchor="middle" font-family="ui-monospace,Menlo,monospace" font-size="11.5" fill="#e6edf3">📱 Flutter app</text>
  <rect x="200" y="88" width="120" height="38" rx="9" fill="#241809" stroke="#8a5a24" stroke-width="2"/>
  <text x="260" y="112" text-anchor="middle" font-family="ui-monospace,Menlo,monospace" font-size="11" fill="#f0e6d8">SFU · WebRTC</text>
  <rect x="210" y="168" width="100" height="34" rx="9" fill="#241809" stroke="#8a5a24" stroke-width="1.3" stroke-dasharray="3 3"/>
  <text x="260" y="189" text-anchor="middle" font-family="ui-monospace,Menlo,monospace" font-size="10" fill="#d8c8b0">Room service</text>
  <rect x="388" y="80" width="102" height="36" rx="9" fill="#16202e" stroke="#4a6da8" stroke-width="1.6"/>
  <text x="439" y="102" text-anchor="middle" font-family="ui-monospace,Menlo,monospace" font-size="10.5" fill="#e6edf3">Agent worker</text>
  <rect x="518" y="80" width="84" height="36" rx="9" fill="#16202e" stroke="#4a6da8" stroke-width="1.6"/>
  <text x="560" y="102" text-anchor="middle" font-family="ui-monospace,Menlo,monospace" font-size="10.5" fill="#e6edf3">STT stream</text>
  <rect x="480" y="140" width="120" height="40" rx="9" fill="#16202e" stroke="#7a9fd4" stroke-width="2.2"/>
  <text x="540" y="165" text-anchor="middle" font-family="ui-monospace,Menlo,monospace" font-size="11.5" fill="#f0f4fa">LLM · tool-use</text>
  <rect x="518" y="200" width="84" height="36" rx="9" fill="#16202e" stroke="#4a6da8" stroke-width="1.6"/>
  <text x="560" y="222" text-anchor="middle" font-family="ui-monospace,Menlo,monospace" font-size="10.5" fill="#e6edf3">TTS</text>
  <rect x="388" y="200" width="102" height="36" rx="9" fill="#16202e" stroke="#4a6da8" stroke-width="1.6"/>
  <text x="439" y="222" text-anchor="middle" font-family="ui-monospace,Menlo,monospace" font-size="10.5" fill="#e6edf3">🎭 Avatar</text>
  <rect x="720" y="80" width="150" height="36" rx="9" fill="#0d2818" stroke="#2ea043" stroke-width="1.6"/>
  <text x="795" y="102" text-anchor="middle" font-family="ui-monospace,Menlo,monospace" font-size="10.5" fill="#d8f0dd">MCP · biz tools</text>
  <ellipse cx="795" cy="146" rx="60" ry="9" fill="#0d2818" stroke="#2ea043" stroke-width="1.6"/>
  <rect x="735" y="146" width="120" height="32" fill="#0d2818"/>
  <line x1="735" y1="146" x2="735" y2="178" stroke="#2ea043" stroke-width="1.6"/>
  <line x1="855" y1="146" x2="855" y2="178" stroke="#2ea043" stroke-width="1.6"/>
  <ellipse cx="795" cy="178" rx="60" ry="9" fill="#0d2818" stroke="#2ea043" stroke-width="1.6"/>
  <text x="795" y="168" text-anchor="middle" font-family="ui-monospace,Menlo,monospace" font-size="10.5" fill="#d8f0dd">Postgres · RLS</text>
  <rect x="728" y="210" width="134" height="34" rx="9" fill="#0d2818" stroke="#2ea043" stroke-width="1.6"/>
  <text x="795" y="231" text-anchor="middle" font-family="ui-monospace,Menlo,monospace" font-size="10.5" fill="#d8f0dd">Redis · memory</text>
  <g>
    <circle r="3" fill="#eda35c"><animateMotion dur="2.2s" repeatCount="indefinite"><mpath href="#e1"/></animateMotion></circle>
    <circle r="3" fill="#eda35c"><animateMotion dur="2.2s" begin="0.8s" repeatCount="indefinite"><mpath href="#e2"/></animateMotion></circle>
    <circle r="3.2" fill="#3fb950"><animateMotion dur="2.6s" begin="0.4s" repeatCount="indefinite"><mpath href="#e3"/></animateMotion></circle>
    <circle r="3" fill="#7a9fd4"><animateMotion dur="2.4s" begin="1.2s" repeatCount="indefinite"><mpath href="#e4"/></animateMotion></circle>
    <circle r="2.6" fill="#3fb950"><animateMotion dur="1.8s" begin="1.6s" repeatCount="indefinite"><mpath href="#e5"/></animateMotion></circle>
  </g>
</svg>